# xmcd
#
# Track frame offsets:
#	150
#	14574
#	33765
#	56179
#	72002
#	83244
#	96014
#	117082
#	142391
#	157258
#	170452
#	187687
#	203455
#	225806
#
# Disc length: 3248 seconds
#
# Revision: 0
# Processed by: cddbd v1.5.1PL0 Copyright (c) Steve Scherf et al.
# Submitted via: dBpowerAMP V4.0
#
DISCID=b00cae0e
DTITLE=Eva Cassidy and Chuck Brown - The other side
DYEAR=1900
DGENRE=
TTITLE0=Let the timegood rimes roll
TTITLE1=Fever
TTITLE2=You don't know me
TTITLE3=I could have told you so
TTITLE4=Gee baby, ain't I good to you
TTITLE5=I'll go crazy
TTITLE6=You con't know what love is
TTITLE7=Drown on my own tears
TTITLE8=God bless the child
TTITLE9=Red top
TTITLE10=Dark end of the street
TTITLE11=The shadow of your smile
TTITLE12=Over the rainbow
TTITLE13=You've changed
EXTD=
EXTT0=
EXTT1=
EXTT2=
EXTT3=
EXTT4=
EXTT5=
EXTT6=
EXTT7=
EXTT8=
EXTT9=
EXTT10=
EXTT11=
EXTT12=
EXTT13=
PLAYORDER=
